<svg xmlns="http://www.w3.org/2000/svg" width="114.469" height="154.8" viewBox="0 0 114.469 154.8">
  <defs>
    <style>
      .cls-1 {
        fill: #f34747;
        fill-rule: evenodd;
      }
    </style>
  </defs>
  <path class="cls-1" d="M181.053,13831.2a17.1,17.1,0,1,1-17.043,17.1A17.1,17.1,0,0,1,181.053,13831.2Zm69.148,18.2-21.264-9.6v-3.1a3.572,3.572,0,0,0-7.142,0v52.6h-7.3l-12.174-13.5a18.853,18.853,0,0,0-13.8-6.2h-13.8a18.84,18.84,0,0,0-15.42,8.2l-19.8,29.1a7.912,7.912,0,0,0-.324,8.8,7.382,7.382,0,0,0,6.492,3.4,7.684,7.684,0,0,0,6.331-3.2l10.226-15v77a7.9,7.9,0,0,0,6.33,8,7.6,7.6,0,0,0,8.928-7.5v-47.7h7.467v47.2a7.9,7.9,0,0,0,6.33,8,7.6,7.6,0,0,0,8.928-7.5v-82.2l5.356,5.8a7.5,7.5,0,0,0,5.681,2.6h18.343a7.608,7.608,0,0,0,7.628-7.6,7.693,7.693,0,0,0-7.628-7.7H229.1v-23.6l21.263-9.6a3.606,3.606,0,0,0,2.11-3.2A4.438,4.438,0,0,0,250.2,13849.4Z" transform="translate(-138 -13831.2)"/>
</svg>
