<svg xmlns="http://www.w3.org/2000/svg" width="156.125" height="126.7" viewBox="0 0 156.125 126.7">
  <defs>
    <style>
      .cls-1 {
        fill: #f34747;
        fill-rule: evenodd;
      }
    </style>
  </defs>
  <path class="cls-1" d="M167,14289.5a5.294,5.294,0,1,1,5.292,5.4A5.313,5.313,0,0,1,167,14289.5Zm5.292,10.7a53.065,53.065,0,0,1,52.794,50.6H119.5A53.065,53.065,0,0,1,172.291,14300.2Zm48.64,61.2H123.652l-2.646-5.3H223.577Zm41.335,0H251.681v-18.6a2.647,2.647,0,1,0-5.293,0v18.6H235.8a2.65,2.65,0,0,0,0,5.3h26.463A2.65,2.65,0,0,0,262.266,14361.4Zm-2.646-55.9,0.794,5.8H237.576l0.873-5.8H259.62Zm-10.585,32a13.328,13.328,0,0,1-13.232-13l1.058-8h24.214l1.059,8A13.314,13.314,0,0,1,249.035,14337.5Zm-15.878,13.3h-5.293a2.65,2.65,0,0,0,0,5.3h5.293A2.65,2.65,0,0,0,233.157,14350.8Zm-116.438,0h-5.293a2.65,2.65,0,0,0,0,5.3h5.293A2.65,2.65,0,0,0,116.719,14350.8Zm34.084-105.7a2.73,2.73,0,0,0,0,3.8c3.414,3.3,3.467,5,3.308,5.6s-0.688,1-1.667,1.8a9.624,9.624,0,0,0-3.678,4.8c-0.927,3.1,0,6.7,3.149,10.6a2.7,2.7,0,1,0,4.207-3.4c-1.852-2.4-2.646-4.4-2.249-5.8a4.932,4.932,0,0,1,1.905-2.1,8.461,8.461,0,0,0,3.52-4.8c0.767-3.2-.794-6.7-4.764-10.6A2.6,2.6,0,0,0,150.8,14245.1Zm18.524-4.4a2.732,2.732,0,0,0,0,3.8c3.414,3.3,3.467,5,3.308,5.6s-0.688,1-1.667,1.8a10.073,10.073,0,0,0-3.678,4.8c-0.927,3.1,0,6.7,3.149,10.7a2.7,2.7,0,0,0,3.738.1,2.611,2.611,0,0,0,.417-3.4c-1.879-2.4-2.647-4.4-2.25-5.7,0.238-.8.847-1.3,1.906-2.2a8.455,8.455,0,0,0,3.519-4.8c0.768-3.2-.794-6.7-4.763-10.6A2.632,2.632,0,0,0,169.327,14240.7Zm18.1,4.4a2.73,2.73,0,0,0,0,3.8c3.388,3.4,3.388,5,3.388,5.6,0,0.5-.689,1-1.668,1.8a10.009,10.009,0,0,0-3.625,4.8c-0.926,3.1,0,6.7,3.149,10.6a2.654,2.654,0,0,0,4.075-3.4c-1.852-2.4-2.646-4.4-2.249-5.8a4.932,4.932,0,0,1,1.905-2.1,8.461,8.461,0,0,0,3.52-4.8c0.767-3.2-.794-6.7-4.763-10.6A2.605,2.605,0,0,0,187.428,14245.1Z" transform="translate(-108.781 -14240)"/>
</svg>
